<?xml version="1.0" encoding="utf-8"?>
<!-- Generator: Adobe Illustrator 20.1.0, SVG Export Plug-In . SVG Version: 6.00 Build 0)  -->
<svg version="1.1" id="Layer_1" xmlns="http://www.w3.org/2000/svg" xmlns:xlink="http://www.w3.org/1999/xlink" x="0px" y="0px"
	 viewBox="0 0 1440 900" style="enable-background:new 0 0 1440 900;" xml:space="preserve">
<style type="text/css">
	.st1{opacity:0.1;fill:#795548;}
</style>
<g class="st0">
	<g>
		<g>
			<rect x="90.3" y="109.5" class="st1" width="237.4" height="237.4"/>
			<rect x="90.3" y="360.9" class="st1" width="219.9" height="24.6"/>
			<rect x="90.3" y="400.7" class="st1" width="207" height="21.1"/>
		</g>
		<g>
			<rect x="436.5" y="109.5" class="st1" width="237.4" height="237.4"/>
			<rect x="436.5" y="360.9" class="st1" width="219.9" height="24.6"/>
			<rect x="436.5" y="400.7" class="st1" width="207" height="21.1"/>
		</g>
	</g>
	<g>
		<g>
			<rect x="766.1" y="109.5" class="st1" width="237.4" height="237.4"/>
			<rect x="766.1" y="360.9" class="st1" width="219.9" height="24.6"/>
			<rect x="766.1" y="400.7" class="st1" width="207" height="21.1"/>
		</g>
		<g>
			<rect x="1112.3" y="109.5" class="st1" width="237.4" height="237.4"/>
			<rect x="1112.3" y="360.9" class="st1" width="219.9" height="24.6"/>
			<rect x="1112.3" y="400.7" class="st1" width="207" height="21.1"/>
		</g>
	</g>
</g>
<g class="st0">
	<g>
		<g>
			<rect x="90.3" y="523" class="st1" width="237.4" height="237.4"/>
			<rect x="90.3" y="774.4" class="st1" width="219.9" height="24.6"/>
			<rect x="90.3" y="814.2" class="st1" width="207" height="21.1"/>
		</g>
		<g>
			<rect x="436.5" y="523" class="st1" width="237.4" height="237.4"/>
			<rect x="436.5" y="774.4" class="st1" width="219.9" height="24.6"/>
			<rect x="436.5" y="814.2" class="st1" width="207" height="21.1"/>
		</g>
	</g>
	<g>
		<g>
			<rect x="766.1" y="523" class="st1" width="237.4" height="237.4"/>
			<rect x="766.1" y="774.4" class="st1" width="219.9" height="24.6"/>
			<rect x="766.1" y="814.2" class="st1" width="207" height="21.1"/>
		</g>
		<g>
			<rect x="1112.3" y="523" class="st1" width="237.4" height="237.4"/>
			<rect x="1112.3" y="774.4" class="st1" width="219.9" height="24.6"/>
			<rect x="1112.3" y="814.2" class="st1" width="207" height="21.1"/>
		</g>
	</g>
</g>
</svg>
