<?xml version="1.0" encoding="utf-8"?>
<!-- Generator: Adobe Illustrator 20.1.0, SVG Export Plug-In . SVG Version: 6.00 Build 0)  -->
<svg version="1.1" id="Layer_1" xmlns="http://www.w3.org/2000/svg" xmlns:xlink="http://www.w3.org/1999/xlink" x="0px" y="0px"
	 viewBox="0 0 689 516" style="enable-background:new 0 0 689 516;" xml:space="preserve">
<style type="text/css">
	.st0{opacity:0.21;fill:#231F20;}
</style>
<rect x="14.7" class="st0" width="147.8" height="122.5"/>
<rect x="14.7" y="138.8" class="st0" width="147.8" height="122.5"/>
<rect x="14.7" y="277.6" class="st0" width="147.8" height="122.5"/>
<rect x="185.3" class="st0" width="147.8" height="122.5"/>
<rect x="185.3" y="138.8" class="st0" width="147.8" height="122.5"/>
<rect x="185.3" y="277.6" class="st0" width="147.8" height="122.5"/>
<rect x="355.9" class="st0" width="147.8" height="122.5"/>
<rect x="355.9" y="138.8" class="st0" width="147.8" height="122.5"/>
<rect x="355.9" y="277.6" class="st0" width="147.8" height="122.5"/>
<rect x="526.5" class="st0" width="147.8" height="122.5"/>
<rect x="526.5" y="138.8" class="st0" width="147.8" height="122.5"/>
<rect x="526.5" y="277.6" class="st0" width="147.8" height="122.5"/>
<rect x="15.7" y="416.3" class="st0" width="147.8" height="122.5"/>
<rect x="186.3" y="416.3" class="st0" width="147.8" height="122.5"/>
<rect x="356.9" y="416.3" class="st0" width="147.8" height="122.5"/>
<rect x="527.5" y="416.3" class="st0" width="147.8" height="122.5"/>
</svg>
